<svg width="32" height="30" viewBox="0 0 32 30" fill="none" xmlns="http://www.w3.org/2000/svg">
<path d="M27.2504 29H18.5003V20.9796H13.5003V29H4.75018V16.0439C4.75018 15.7033 5.02956 15.4269 5.37519 15.4269C5.72082 15.4269 6.0002 15.7033 6.0002 16.0439V27.7661H12.2503V19.7456H19.7503V27.7661H26.0004V16.6609C26.0004 16.3203 26.2798 16.0439 26.6254 16.0439C26.971 16.0439 27.2504 16.3203 27.2504 16.6609V29Z" fill="black" stroke="black"/>
<path d="M30.3755 16.0439C30.2198 16.0439 30.0648 15.9871 29.9436 15.873L16.0003 2.70774L2.05704 15.873C1.80767 16.1081 1.41204 16.1 1.17329 15.8539C0.934533 15.6077 0.943908 15.2172 1.19266 14.9815L16.0003 1L30.8073 14.9809C31.0561 15.2166 31.0655 15.6071 30.8267 15.8533C30.7042 15.9797 30.5405 16.0439 30.3755 16.0439Z" fill="black" stroke="black"/>
<path d="M25.3754 8.6404C25.0298 8.6404 24.7504 8.364 24.7504 8.02344V4.3217H21.0004C20.6547 4.3217 20.3754 4.0453 20.3754 3.70474C20.3754 3.36418 20.6547 3.08778 21.0004 3.08778H26.0004V8.02344C26.0004 8.364 25.721 8.6404 25.3754 8.6404Z" fill="black" stroke="black"/>
</svg>
