<svg width="1440" height="332" viewBox="0 0 1440 332" fill="none" xmlns="http://www.w3.org/2000/svg">
<g clip-path="url(#clip0_11_40)">
<path d="M0 325.337L26.72 323.293C53.28 321.419 106.72 317.331 160 291.781C213.28 266.231 266.72 219.219 320 223.477C373.28 227.736 426.72 283.264 480 311.199C533.28 338.963 586.72 338.963 640 314.776C693.28 290.759 761.72 266.468 815 237C868.28 207.532 866.22 302.512 919.5 314.776C972.78 327.04 1049.22 270.149 1102.5 291.781C1155.78 313.413 1226.72 332.17 1280 332C1333.28 331.659 1386.72 274.237 1413.28 269.978L1440 265.72V0H1413.28C1386.72 0 1333.28 0 1280 0C1226.72 0 1173.28 0 1120 0C1066.72 0 1013.28 0 960 0C906.72 0 853.28 0 800 0C746.72 0 693.28 0 640 0C586.72 0 533.28 0 480 0C426.72 0 373.28 0 320 0C266.72 0 213.28 0 160 0C106.72 0 53.28 0 26.72 0H0V325.337Z" fill="#5B4082"/>
</g>
<defs>
<clipPath id="clip0_11_40">
<rect width="1440" height="332" fill="white"/>
</clipPath>
</defs>
</svg>
